<svg width="42" height="38" viewBox="0 0 42 38" fill="none" xmlns="http://www.w3.org/2000/svg">
<rect y="0.000976562" width="42" height="38" rx="6" fill="#BF9BDE"/>
<path d="M13.6932 24.4016C13.7376 24.3305 13.8087 24.326 13.9065 24.3882C16.1072 25.6714 18.6124 26.3392 21.1598 26.3216C22.9251 26.3173 24.6743 25.9873 26.3198 25.3482C26.3643 25.3305 26.4287 25.3038 26.5132 25.2682C26.5976 25.2327 26.6576 25.206 26.6932 25.1882C26.7458 25.1595 26.8074 25.1518 26.8656 25.1666C26.9237 25.1815 26.9741 25.2178 27.0065 25.2682C27.0821 25.3749 27.0576 25.4727 26.9332 25.5616C26.7732 25.6771 26.5687 25.8105 26.3198 25.9616C25.5195 26.4297 24.6579 26.7843 23.7598 27.0149C22.8598 27.2581 21.9321 27.3836 20.9998 27.3882C19.6547 27.3959 18.3201 27.1494 17.0665 26.6616C15.8451 26.1859 14.7202 25.4924 13.7465 24.6149C13.7241 24.6 13.7054 24.5803 13.6915 24.5572C13.6777 24.5342 13.6692 24.5083 13.6665 24.4816C13.6672 24.4528 13.6765 24.425 13.6932 24.4016ZM17.7065 20.6016C17.6905 20.0428 17.849 19.4929 18.1598 19.0282C18.4695 18.5867 18.9001 18.2441 19.3998 18.0416C19.9681 17.8147 20.5648 17.6667 21.1732 17.6016C21.4132 17.5749 21.8043 17.5394 22.3465 17.4949V17.2682C22.3802 16.8765 22.316 16.4824 22.1598 16.1216C22.0589 15.986 21.9253 15.8781 21.7714 15.8082C21.6175 15.7382 21.4484 15.7084 21.2798 15.7216H21.1732C20.8985 15.7413 20.635 15.8384 20.4132 16.0016C20.1977 16.165 20.0504 16.4025 19.9998 16.6682C19.9945 16.7413 19.9657 16.8107 19.9176 16.866C19.8695 16.9213 19.8048 16.9595 19.7332 16.9749L18.1998 16.7882C18.0487 16.7527 17.9732 16.6727 17.9732 16.5482C17.9738 16.5167 17.9783 16.4854 17.9865 16.4549C18.0381 16.0998 18.164 15.7596 18.3558 15.4564C18.5476 15.1531 18.8011 14.8937 19.0998 14.6949C19.7225 14.3027 20.4378 14.082 21.1732 14.0549H21.5065C22.3692 14.003 23.2189 14.2847 23.8798 14.8416C23.9691 14.9309 24.0515 15.0267 24.1265 15.1282C24.1922 15.2155 24.2523 15.3068 24.3065 15.4016C24.3616 15.5114 24.4019 15.6279 24.4265 15.7482C24.4621 15.8994 24.4887 16.0038 24.5065 16.0616C24.5321 16.1844 24.5455 16.3095 24.5465 16.4349C24.5554 16.626 24.5598 16.7394 24.5598 16.7749V20.0016C24.5573 20.2168 24.5911 20.4309 24.6598 20.6349C24.7048 20.781 24.7699 20.9201 24.8532 21.0482C24.9154 21.1327 25.0176 21.2682 25.1598 21.4549C25.2067 21.5167 25.2345 21.5909 25.2398 21.6682C25.2386 21.7057 25.2282 21.7422 25.2096 21.7748C25.191 21.8073 25.1648 21.8348 25.1332 21.8549C24.3954 22.4949 23.9954 22.8416 23.9332 22.8949C23.8774 22.9345 23.8118 22.958 23.7436 22.9627C23.6754 22.9674 23.6072 22.9532 23.5465 22.9216C23.4221 22.8149 23.3132 22.7127 23.2198 22.6149C23.1265 22.5171 23.0598 22.446 23.0198 22.4016C22.9507 22.3185 22.8862 22.2317 22.8265 22.1416C22.7376 22.0127 22.6754 21.926 22.6398 21.8816C22.2541 22.3485 21.7464 22.6993 21.1732 22.8949C20.8079 22.9917 20.4309 23.0366 20.0532 23.0282C19.7441 23.0395 19.4359 22.9894 19.1463 22.8807C18.8568 22.772 18.5917 22.6068 18.3665 22.3949C18.138 22.1582 17.9613 21.8765 17.8476 21.5678C17.734 21.259 17.6859 20.9299 17.7065 20.6016ZM19.9998 20.3349C19.9847 20.6348 20.0769 20.9302 20.2598 21.1682C20.3445 21.2709 20.4517 21.3526 20.5731 21.407C20.6945 21.4613 20.8269 21.4869 20.9598 21.4816C20.9979 21.4803 21.0358 21.4758 21.0732 21.4682C21.1061 21.4613 21.1396 21.4569 21.1732 21.4549C21.3608 21.4041 21.5353 21.3135 21.6849 21.1892C21.8344 21.065 21.9555 20.9101 22.0398 20.7349C22.1392 20.5619 22.2133 20.3756 22.2598 20.1816C22.3023 20.0223 22.3291 19.8593 22.3398 19.6949C22.3443 19.5705 22.3465 19.366 22.3465 19.0816V18.7482C21.9525 18.7361 21.5585 18.7719 21.1732 18.8549C20.8311 18.9167 20.5232 19.1011 20.3072 19.3735C20.0913 19.6459 19.982 19.9877 19.9998 20.3349ZM25.5998 24.6282C25.6206 24.5886 25.6476 24.5526 25.6798 24.5216C25.8742 24.3837 26.0906 24.28 26.3198 24.2149C26.642 24.1283 26.9731 24.0791 27.3065 24.0682C27.3911 24.0591 27.4766 24.0636 27.5598 24.0816C27.9598 24.1171 28.1998 24.1838 28.2798 24.2816C28.3202 24.3548 28.3387 24.4381 28.3332 24.5216V24.6149C28.3181 24.9942 28.2322 25.3673 28.0798 25.7149C27.9315 26.1077 27.6888 26.458 27.3732 26.7349C27.3403 26.7656 27.298 26.7844 27.2532 26.7882C27.2346 26.7881 27.2163 26.7835 27.1998 26.7749C27.1465 26.7482 27.1332 26.6994 27.1598 26.6282C27.4129 26.1217 27.5797 25.5764 27.6532 25.0149C27.6594 24.9399 27.6406 24.8649 27.5998 24.8016C27.5109 24.6949 27.2621 24.6416 26.8532 24.6416C26.7021 24.6416 26.5243 24.6505 26.3198 24.6682C26.0976 24.6949 25.8932 24.7216 25.7065 24.7482C25.6689 24.7527 25.6309 24.7432 25.5998 24.7216C25.5918 24.7156 25.5861 24.707 25.5836 24.6973C25.5812 24.6876 25.5822 24.6773 25.5865 24.6682C25.5881 24.6541 25.5927 24.6405 25.5998 24.6282Z" fill="#352B3D"/>
</svg>
