<svg width="48" height="128" viewBox="0 0 48 128" fill="none" xmlns="http://www.w3.org/2000/svg">
<path d="M40.6665 21.7201C40.6636 20.9197 40.4206 20.1386 39.9689 19.4778C39.5173 18.817 38.8778 18.3069 38.1332 18.0134L40.6265 8.68006C40.6786 8.48129 40.684 8.27317 40.6424 8.07195C40.6008 7.87073 40.5132 7.68185 40.3865 7.52006C40.257 7.36847 40.0951 7.24786 39.9128 7.16709C39.7306 7.08633 39.5325 7.04748 39.3332 7.0534H21.0665L20.6265 5.3734C20.55 5.08928 20.3817 4.83844 20.1477 4.65998C19.9138 4.48151 19.6274 4.38544 19.3332 4.38673H16.6665V7.0534H18.3065L21.6132 19.4001C21.6913 19.6909 21.8656 19.9468 22.1077 20.126C22.3498 20.3051 22.6455 20.397 22.9465 20.3867H36.6665C37.0201 20.3867 37.3593 20.5272 37.6093 20.7773C37.8594 21.0273 37.9998 21.3664 37.9998 21.7201C37.9998 22.0737 37.8594 22.4128 37.6093 22.6629C37.3593 22.9129 37.0201 23.0534 36.6665 23.0534H19.3332C18.9795 23.0534 18.6404 23.1939 18.3904 23.4439C18.1403 23.694 17.9998 24.0331 17.9998 24.3867C17.9998 24.7404 18.1403 25.0795 18.3904 25.3295C18.6404 25.5796 18.9795 25.7201 19.3332 25.7201H20.9065C20.6872 26.3242 20.6168 26.9724 20.7011 27.6095C20.7854 28.2467 21.022 28.8542 21.3909 29.3805C21.7598 29.9069 22.2501 30.3366 22.8203 30.6332C23.3905 30.9299 24.0238 31.0848 24.6665 31.0848C25.3092 31.0848 25.9425 30.9299 26.5127 30.6332C27.0829 30.3366 27.5732 29.9069 27.9421 29.3805C28.311 28.8542 28.5476 28.2467 28.6319 27.6095C28.7163 26.9724 28.6458 26.3242 28.4265 25.7201H31.5732C31.3736 26.2702 31.2971 26.8574 31.3492 27.4404C31.4012 28.0233 31.5806 28.5877 31.8746 29.0937C32.1685 29.5998 32.57 30.0351 33.0506 30.3691C33.5311 30.7031 34.0791 30.9276 34.6559 31.0267C35.2327 31.1258 35.8242 31.0971 36.3887 30.9427C36.9532 30.7883 37.477 30.5119 37.923 30.133C38.369 29.7541 38.7265 29.2819 38.9701 28.7498C39.2138 28.2177 39.3377 27.6386 39.3332 27.0534C39.3307 26.3646 39.1467 25.6885 38.7998 25.0934C39.37 24.7339 39.8401 24.2362 40.1664 23.6465C40.4927 23.0567 40.6648 22.3941 40.6665 21.7201ZM35.4532 17.7201H23.9998L21.7865 9.72007H37.5998L35.4532 17.7201ZM24.6665 28.3867C24.4028 28.3867 24.145 28.3085 23.9257 28.162C23.7065 28.0155 23.5356 27.8073 23.4347 27.5636C23.3337 27.32 23.3073 27.0519 23.3588 26.7933C23.4102 26.5346 23.5372 26.2971 23.7237 26.1106C23.9102 25.9241 24.1477 25.7971 24.4064 25.7457C24.665 25.6942 24.9331 25.7206 25.1767 25.8216C25.4204 25.9225 25.6286 26.0934 25.7751 26.3126C25.9216 26.5319 25.9998 26.7897 25.9998 27.0534C25.9998 27.407 25.8594 27.7462 25.6093 27.9962C25.3593 28.2463 25.0201 28.3867 24.6665 28.3867ZM35.3332 28.3867C35.0695 28.3867 34.8117 28.3085 34.5924 28.162C34.3731 28.0155 34.2022 27.8073 34.1013 27.5636C34.0004 27.32 33.974 27.0519 34.0255 26.7933C34.0769 26.5346 34.2039 26.2971 34.3904 26.1106C34.5768 25.9241 34.8144 25.7971 35.073 25.7457C35.3317 25.6942 35.5998 25.7206 35.8434 25.8216C36.087 25.9225 36.2953 26.0934 36.4418 26.3126C36.5883 26.5319 36.6665 26.7897 36.6665 27.0534C36.6665 27.407 36.526 27.7462 36.276 27.9962C36.0259 28.2463 35.6868 28.3867 35.3332 28.3867Z" fill="#212529"/>
</svg>
