<svg width="42" height="38" viewBox="0 0 42 38" fill="none" xmlns="http://www.w3.org/2000/svg">
<rect y="0.000976562" width="42" height="38" rx="6" fill="#BF9BDE"/>
<path d="M28.3274 15.3544C28.3274 15.2368 28.2962 15.1212 28.2371 15.0195C28.1779 14.9178 28.0929 14.8335 27.9907 14.7753C27.8884 14.717 27.7726 14.6869 27.6549 14.6879C27.5373 14.6889 27.422 14.7211 27.3207 14.7811C26.9304 15.0137 26.51 15.1917 26.0714 15.3104C25.4454 14.7733 24.647 14.4794 23.8221 14.4824C22.9172 14.4835 22.0482 14.8362 21.3985 15.466C20.7488 16.0958 20.3693 16.9534 20.3401 17.8578C18.5559 17.5733 16.9389 16.6421 15.7974 15.2418C15.7286 15.1584 15.6408 15.0928 15.5414 15.0505C15.442 15.0081 15.3338 14.9903 15.2261 14.9984C15.1183 15.0074 15.0144 15.0424 14.9232 15.1004C14.832 15.1585 14.7564 15.2379 14.7027 15.3318C14.4278 15.8117 14.2698 16.3497 14.2418 16.9021C14.2138 17.4546 14.3164 18.0058 14.5414 18.5111L14.5401 18.5118C14.4387 18.5741 14.3551 18.6613 14.2972 18.7652C14.2393 18.8691 14.2091 18.9862 14.2094 19.1051C14.2083 19.203 14.2144 19.3008 14.2274 19.3978C14.2955 20.2365 14.6672 21.0215 15.2727 21.6058C15.2316 21.6841 15.2066 21.7699 15.199 21.858C15.1915 21.9462 15.2016 22.0349 15.2287 22.1191C15.4927 22.9419 16.0542 23.6365 16.8034 24.0671C16.0422 24.3614 15.2203 24.464 14.4101 24.3658C14.2602 24.3471 14.1084 24.3799 13.9796 24.4588C13.8508 24.5377 13.7526 24.658 13.7011 24.8C13.6496 24.942 13.6478 25.0972 13.6961 25.2404C13.7443 25.3835 13.8398 25.506 13.9667 25.5878C15.3602 26.4851 16.9827 26.9622 18.6401 26.9618C20.5196 26.9829 22.3534 26.3824 23.8562 25.2535C25.3591 24.1246 26.4468 22.5308 26.9501 20.7198C27.1854 19.931 27.3055 19.1123 27.3067 18.2891L27.3061 18.1558C27.6542 17.7803 27.9238 17.3391 28.0992 16.8581C28.2746 16.3771 28.3522 15.8659 28.3274 15.3544ZM26.1234 17.4958C26.0132 17.6259 25.9573 17.7935 25.9674 17.9638C25.9741 18.0738 25.9734 18.1844 25.9734 18.2891C25.972 18.9846 25.8701 19.6762 25.6707 20.3424C25.2599 21.8835 24.3437 23.2421 23.0689 24.2007C21.7942 25.1592 20.2346 25.6622 18.6401 25.6291C18.0675 25.6292 17.4969 25.5618 16.9401 25.4284C17.6503 25.1994 18.3143 24.8464 18.9014 24.3858C19.0097 24.3007 19.0889 24.1841 19.1283 24.0521C19.1676 23.9202 19.1651 23.7793 19.1211 23.6488C19.0771 23.5183 18.9938 23.4046 18.8826 23.3234C18.7714 23.2421 18.6378 23.1973 18.5001 23.1951C17.9459 23.1864 17.4167 22.963 17.0241 22.5718C17.1236 22.5531 17.2225 22.5298 17.3207 22.5018C17.4648 22.4608 17.5908 22.3726 17.6786 22.2513C17.7663 22.13 17.8107 21.9827 17.8045 21.8331C17.7984 21.6835 17.7421 21.5403 17.6446 21.4267C17.5472 21.313 17.4143 21.2354 17.2674 21.2064C16.9457 21.1429 16.6431 21.006 16.3829 20.8065C16.1227 20.6069 15.9121 20.35 15.7674 20.0558C15.8879 20.0722 16.0092 20.0825 16.1307 20.0864C16.2752 20.0888 16.4167 20.0451 16.5346 19.9617C16.6526 19.8783 16.7409 19.7594 16.7867 19.6224C16.8308 19.4843 16.8286 19.3355 16.7804 19.1988C16.7323 19.062 16.6409 18.9446 16.5201 18.8644C16.2267 18.6692 15.9863 18.4041 15.8205 18.0931C15.6548 17.7821 15.5687 17.4349 15.5701 17.0824C15.5701 17.0384 15.5714 16.9938 15.5741 16.9504C17.0684 18.3442 19.0067 19.1658 21.0474 19.2704C21.1505 19.2744 21.253 19.2548 21.3474 19.2132C21.4418 19.1716 21.5254 19.1091 21.5921 19.0304C21.6581 18.9513 21.7049 18.8579 21.7287 18.7576C21.7525 18.6573 21.7528 18.5528 21.7294 18.4524C21.6912 18.2933 21.6718 18.1302 21.6714 17.9664C21.6721 17.3963 21.8989 16.8496 22.3021 16.4465C22.7053 16.0433 23.2519 15.8165 23.8221 15.8158C24.1155 15.8149 24.4059 15.8749 24.675 15.9919C24.9441 16.109 25.186 16.2805 25.3854 16.4958C25.4623 16.5785 25.5591 16.6402 25.6666 16.675C25.774 16.7098 25.8886 16.7165 25.9994 16.6944C26.2733 16.6412 26.5432 16.5695 26.8074 16.4798C26.6273 16.8483 26.3971 17.1902 26.1234 17.4958Z" fill="#352B3D"/>
</svg>
