<svg width="42" height="38" viewBox="0 0 42 38" fill="none" xmlns="http://www.w3.org/2000/svg">
<rect y="0.000976562" width="42" height="38" rx="6" fill="#BF9BDE"/>
<path d="M24.5602 16.3614C24.4019 16.3614 24.2473 16.4083 24.1157 16.4962C23.9841 16.5841 23.8816 16.709 23.8211 16.8552C23.7605 17.0014 23.7447 17.1622 23.7755 17.3174C23.8064 17.4726 23.8826 17.6152 23.9945 17.727C24.1064 17.8389 24.2489 17.9151 24.4041 17.946C24.5593 17.9769 24.7201 17.961 24.8663 17.9005C25.0125 17.8399 25.1374 17.7374 25.2253 17.6058C25.3132 17.4743 25.3602 17.3196 25.3602 17.1614C25.3602 16.9492 25.2759 16.7457 25.1258 16.5957C24.9758 16.4456 24.7723 16.3614 24.5602 16.3614ZM27.6268 17.9747C27.6139 17.4216 27.5103 16.8743 27.3202 16.3547C27.1507 15.9101 26.8868 15.5075 26.5468 15.1747C26.2167 14.833 25.8132 14.5708 25.3668 14.408C24.8486 14.2121 24.3007 14.1062 23.7468 14.0947C23.0402 14.0547 22.8135 14.0547 21.0002 14.0547C19.1868 14.0547 18.9602 14.0547 18.2535 14.0947C17.6996 14.1062 17.1517 14.2121 16.6335 14.408C16.1879 14.5725 15.7848 14.8344 15.4535 15.1747C15.1118 15.5048 14.8496 15.9083 14.6868 16.3547C14.4909 16.8729 14.385 17.4208 14.3735 17.9747C14.3335 18.6814 14.3335 18.908 14.3335 20.7214C14.3335 22.5347 14.3335 22.7614 14.3735 23.468C14.385 24.0219 14.4909 24.5698 14.6868 25.088C14.8496 25.5344 15.1118 25.9379 15.4535 26.268C15.7848 26.6083 16.1879 26.8703 16.6335 27.0347C17.1517 27.2306 17.6996 27.3365 18.2535 27.348C18.9602 27.388 19.1868 27.388 21.0002 27.388C22.8135 27.388 23.0402 27.388 23.7468 27.348C24.3007 27.3365 24.8486 27.2306 25.3668 27.0347C25.8132 26.8719 26.2167 26.6097 26.5468 26.268C26.8883 25.9364 27.1524 25.5335 27.3202 25.088C27.5103 24.5684 27.6139 24.0212 27.6268 23.468C27.6268 22.7614 27.6668 22.5347 27.6668 20.7214C27.6668 18.908 27.6668 18.6814 27.6268 17.9747ZM26.4268 23.388C26.422 23.8112 26.3453 24.2305 26.2002 24.628C26.0937 24.9182 25.9227 25.1803 25.7002 25.3947C25.4839 25.615 25.2223 25.7856 24.9335 25.8947C24.536 26.0399 24.1167 26.1165 23.6935 26.1214C23.0268 26.1547 22.7802 26.1614 21.0268 26.1614C19.2735 26.1614 19.0268 26.1614 18.3602 26.1214C17.9208 26.1296 17.4832 26.0619 17.0668 25.9214C16.7907 25.8067 16.5411 25.6365 16.3335 25.4214C16.1122 25.2072 15.9434 24.9448 15.8402 24.6547C15.6774 24.2515 15.5871 23.8226 15.5735 23.388C15.5735 22.7214 15.5335 22.4747 15.5335 20.7214C15.5335 18.968 15.5335 18.7214 15.5735 18.0547C15.5765 17.6221 15.6555 17.1933 15.8068 16.788C15.9242 16.5066 16.1043 16.2558 16.3335 16.0547C16.536 15.8255 16.7864 15.6434 17.0668 15.5214C17.4732 15.3747 17.9015 15.2981 18.3335 15.2947C19.0002 15.2947 19.2468 15.2547 21.0002 15.2547C22.7535 15.2547 23.0002 15.2547 23.6668 15.2947C24.09 15.2995 24.5093 15.3762 24.9068 15.5214C25.2098 15.6338 25.4817 15.8166 25.7002 16.0547C25.9186 16.2595 26.0893 16.5098 26.2002 16.788C26.3483 17.194 26.425 17.6225 26.4268 18.0547C26.4602 18.7214 26.4668 18.968 26.4668 20.7214C26.4668 22.4747 26.4602 22.7214 26.4268 23.388ZM21.0002 17.3014C20.324 17.3027 19.6635 17.5044 19.1019 17.881C18.5404 18.2576 18.1031 18.7922 17.8453 19.4172C17.5874 20.0422 17.5206 20.7297 17.6534 21.3926C17.7861 22.0556 18.1123 22.6644 18.5909 23.142C19.0694 23.6196 19.6788 23.9447 20.3421 24.0761C21.0053 24.2075 21.6926 24.1394 22.3171 23.8804C22.9417 23.6213 23.4754 23.183 23.8509 22.6207C24.2264 22.0584 24.4268 21.3975 24.4268 20.7214C24.4277 20.2714 24.3396 19.8258 24.1677 19.41C23.9957 18.9942 23.7432 18.6166 23.4247 18.2987C23.1063 17.9809 22.7281 17.7291 22.312 17.558C21.8959 17.3868 21.4501 17.2996 21.0002 17.3014ZM21.0002 22.9414C20.5611 22.9414 20.1319 22.8112 19.7668 22.5672C19.4017 22.3233 19.1172 21.9766 18.9492 21.5709C18.7811 21.1653 18.7372 20.7189 18.8228 20.2883C18.9085 19.8576 19.1199 19.462 19.4304 19.1516C19.7409 18.8411 20.1364 18.6297 20.5671 18.544C20.9977 18.4584 21.4441 18.5023 21.8497 18.6703C22.2554 18.8384 22.6021 19.1229 22.846 19.488C23.09 19.8531 23.2202 20.2823 23.2202 20.7214C23.2202 21.0129 23.1627 21.3016 23.0512 21.5709C22.9396 21.8403 22.7761 22.085 22.5699 22.2911C22.3638 22.4973 22.1191 22.6608 21.8497 22.7724C21.5804 22.8839 21.2917 22.9414 21.0002 22.9414Z" fill="#352B3D"/>
</svg>
