<svg width="42" height="38" viewBox="0 0 42 38" fill="none" xmlns="http://www.w3.org/2000/svg">
<rect y="0.000976562" width="42" height="38" rx="6" fill="#BF9BDE"/>
<path d="M28.3332 19.195C28.3662 18.2408 28.1575 17.2937 27.7265 16.4417C27.4341 16.0921 27.0283 15.8561 26.5799 15.775C24.7249 15.6067 22.8622 15.5377 20.9999 15.5683C19.1443 15.5363 17.2883 15.6031 15.4399 15.7683C15.0744 15.8348 14.7362 16.0062 14.4665 16.2617C13.8665 16.815 13.7999 17.7617 13.7332 18.5617C13.6365 20 13.6365 21.4433 13.7332 22.8817C13.7525 23.3319 13.8195 23.7789 13.9332 24.215C14.0136 24.5517 14.1762 24.8632 14.4065 25.1217C14.678 25.3906 15.0241 25.5718 15.3999 25.6417C16.8371 25.8191 18.2853 25.8926 19.7332 25.8617C22.0665 25.895 24.1132 25.8617 26.5332 25.675C26.9182 25.6094 27.274 25.428 27.5532 25.155C27.7398 24.9683 27.8792 24.7397 27.9599 24.4883C28.1983 23.7567 28.3154 22.9911 28.3065 22.2217C28.3332 21.8483 28.3332 19.595 28.3332 19.195ZM19.4932 22.6217V18.495L23.4399 20.5683C22.3332 21.1817 20.8732 21.875 19.4932 22.6217Z" fill="#352B3D"/>
</svg>
